<?xml version="1.0" encoding="UTF-8"?>
<!DOCTYPE svg PUBLIC "-//W3C//DTD SVG 1.1//EN" "http://www.w3.org/Graphics/SVG/1.1/DTD/svg11.dtd">
<svg xmlns="http://www.w3.org/2000/svg" xmlns:xlink="http://www.w3.org/1999/xlink" version="1.1" width="235px" height="141px" viewBox="-0.5 -0.5 235 141"><defs/><g><rect x="0" y="0" width="233.33" height="140" fill="none" stroke="none" pointer-events="all"/><path d="M 19.78 108.6 L 19.78 6.28 C 21.21 2.91 24.32 0.52 27.97 0 L 204.66 0 C 209.14 0.49 212.81 3.76 213.79 8.14 L 213.79 108.6 L 232.51 128.84 C 233.33 131.36 232.53 133.99 230.32 136.1 C 228.1 138.22 224.66 139.63 220.81 140 L 12.75 140 C 8.86 139.67 5.36 138.27 3.09 136.15 C 0.83 134.03 0 131.38 0.82 128.84 Z M 27.5 108.6 L 206.77 108.84 L 206.77 10.23 C 205.92 7.76 203.75 5.96 201.15 5.58 L 32.18 5.58 C 29.62 6.46 27.8 8.72 27.5 11.4 Z M 98.64 122.33 L 92.33 131.4 L 136.32 131.4 L 131.41 122.33 Z" fill="#ffe6cc" stroke="#d79b00" stroke-miterlimit="10" pointer-events="all"/></g></svg>